<svg width="236" height="209" viewBox="0 0 236 209" fill="none" xmlns="http://www.w3.org/2000/svg">
<path d="M3.95385 90.3455L53.6122 29.1438C56.0536 26.1349 60.4664 25.6794 63.4684 28.1264L140.757 91.1268C143.409 93.2881 143.81 97.1948 141.654 99.8524L91.4298 161.751C89.2734 164.409 85.3758 164.811 82.7242 162.65L4.87574 99.1928C2.18294 96.9978 1.77529 93.0305 3.96523 90.3315L3.95385 90.3455Z" fill="white"/>
<path fill-rule="evenodd" clip-rule="evenodd" d="M81.9374 163.617C83.2486 164.693 84.8913 165.281 86.5862 165.28C86.8388 165.28 87.0854 165.262 87.362 165.226C89.3122 165.029 91.1029 164.059 92.3355 162.532L142.594 100.602C143.831 99.0778 144.413 97.1233 144.212 95.1688C144.012 93.2143 143.045 91.4197 141.524 90.18L64.2324 27.1774C62.5423 25.801 60.3755 25.1547 58.2096 25.3808C56.0437 25.607 54.0564 26.687 52.6856 28.383L3.0104 89.6013C1.7565 91.1444 1.16603 93.1238 1.36908 95.1035C1.57212 97.0833 2.55201 98.9009 4.09291 100.156L81.9374 163.617ZM58.459 27.7561H59.0604C60.3904 27.7561 61.6797 28.216 62.7108 29.0581L140.02 92.0667C142.151 93.8076 142.474 96.9493 140.742 99.0891L90.4893 161.025C88.7485 163.158 85.6149 163.482 83.477 161.748L5.60841 98.2512C4.56305 97.3996 3.89835 96.1663 3.76073 94.8231C3.62311 93.4799 4.02387 92.137 4.87471 91.0902L54.5499 29.8719C55.5179 28.6706 56.926 27.9085 58.459 27.7561Z" fill="#372168"/>
<path d="M55.873 61.8011C55.6319 61.8024 55.3979 61.7193 55.2114 61.566C54.7619 61.1979 54.6946 60.5344 55.0611 60.0832L62.5124 50.9028C62.8869 50.4802 63.5273 50.4287 63.9643 50.7859C64.4014 51.1432 64.4798 51.7822 64.1421 52.235L56.6909 61.4093C56.4912 61.6569 56.1906 61.8009 55.873 61.8011Z" fill="#372168"/>
<path d="M28.275 95.816C27.8684 95.8183 27.4973 95.5845 27.3232 95.2162C27.1492 94.8479 27.2037 94.4119 27.4631 94.0981L51.2843 64.7367C51.6513 64.2839 52.315 64.2151 52.7668 64.583C53.2185 64.9508 53.2871 65.6161 52.9201 66.0688L29.0929 95.4242C28.8943 95.6732 28.593 95.8176 28.275 95.816Z" fill="#372168"/>
<path d="M54.8867 79.764C54.4813 79.7637 54.1121 79.5301 53.9375 79.1634C53.7629 78.7967 53.814 78.3621 54.0688 78.046L70.6853 57.5515C71.0523 57.0988 71.716 57.0299 72.1678 57.3978C72.6195 57.7657 72.6881 58.4309 72.3211 58.8837L55.7046 79.3782C55.5032 79.6229 55.2031 79.7644 54.8867 79.764Z" fill="#372168"/>
<path d="M36.4539 102.483C36.213 102.483 35.9793 102.4 35.7924 102.248C35.3402 101.879 35.2703 101.214 35.636 100.759L50.4724 82.5066C50.8394 82.0539 51.5031 81.985 51.9548 82.3529C52.4066 82.7208 52.4752 83.386 52.1082 83.8387L37.2718 102.121C37.0668 102.358 36.7668 102.491 36.4539 102.483Z" fill="#372168"/>
<path d="M44.633 109.149C44.2275 109.146 43.8595 108.911 43.6854 108.544C43.5113 108.177 43.5616 107.743 43.8151 107.426L78.8643 64.2364C79.0898 63.9119 79.4774 63.7412 79.8683 63.7939C80.2592 63.8467 80.5879 64.1141 80.7198 64.4867C80.8516 64.8594 80.7645 65.2746 80.4941 65.5625L45.4448 108.758C45.2482 109.006 44.9491 109.15 44.633 109.149Z" fill="#372168"/>
<path d="M83.1041 78.4801C82.6986 78.4769 82.3307 78.2418 82.1565 77.8748C81.9824 77.5078 82.0328 77.0733 82.2862 76.7561L87.0372 70.8971C87.2746 70.6042 87.6499 70.4605 88.0217 70.5202C88.3934 70.5798 88.7052 70.8337 88.8396 71.1862C88.9739 71.5388 88.9104 71.9363 88.673 72.2292L83.916 78.0882C83.7193 78.3363 83.4202 78.4807 83.1041 78.4801Z" fill="#372168"/>
<path d="M52.8058 115.81C52.5645 115.813 52.33 115.73 52.1443 115.575C51.6947 115.207 51.6275 114.544 51.9939 114.092L78.7319 81.1383C78.9694 80.8454 79.3446 80.7017 79.7164 80.7614C80.0882 80.821 80.4 81.0749 80.5343 81.4274C80.6687 81.78 80.6052 82.1776 80.3677 82.4704L53.6237 115.424C53.4223 115.669 53.1223 115.811 52.8058 115.81Z" fill="#372168"/>
<path d="M60.9849 122.477C60.5795 122.477 60.2103 122.243 60.0357 121.876C59.8611 121.51 59.9122 121.075 60.167 120.759L92.8407 80.4933C93.2153 80.0707 93.8556 80.0191 94.2927 80.3764C94.7298 80.7336 94.8082 81.3727 94.4705 81.8254L61.8268 122.091C61.6201 122.342 61.3097 122.485 60.9849 122.477Z" fill="#372168"/>
<path d="M56.4503 32.1926C56.2815 32.1937 56.12 32.1237 56.0053 31.9997C55.8961 31.8817 55.8384 31.7249 55.8452 31.5642C55.852 31.4034 55.9226 31.252 56.0414 31.1437C57.5009 29.8576 59.6046 29.6171 61.3156 30.5409C61.5135 30.6351 61.6448 30.8297 61.6581 31.0489C61.6714 31.2681 61.5647 31.4772 61.3797 31.5947C61.1946 31.7123 60.9604 31.7196 60.7683 31.6139C59.5089 30.9177 57.9505 31.0787 56.8593 32.0178C56.7502 32.1262 56.6039 32.1888 56.4503 32.1926Z" fill="#372168"/>
<path d="M62.9301 38.6837L136.899 13.8339C140.882 12.4956 145.194 14.6476 146.53 18.6405L178.47 114.155C179.296 116.623 177.968 119.295 175.506 120.122L97.175 146.437C94.7123 147.265 92.0467 145.934 91.2213 143.466L58.8965 46.803C57.7734 43.4445 59.5793 39.8093 62.9301 38.6837Z" fill="white"/>
<path fill-rule="evenodd" clip-rule="evenodd" d="M92.997 147.305C93.8154 147.706 94.7146 147.912 95.6251 147.908C96.2646 147.91 96.9002 147.808 97.5075 147.607L175.863 121.308C177.349 120.81 178.576 119.741 179.275 118.335C179.973 116.93 180.085 115.303 179.586 113.815L147.652 18.2985C146.099 13.6789 141.11 11.1884 136.496 12.7288L62.5243 37.5754C58.5389 38.9073 56.3849 43.225 57.7132 47.2199L90.0321 143.888C90.5252 145.378 91.5929 146.609 92.997 147.305ZM137.236 15.0314C137.89 14.8082 138.577 14.6942 139.268 14.6939V14.6637C142.028 14.6754 144.472 16.4511 145.342 19.0761L177.276 114.593C177.888 116.43 176.901 118.417 175.069 119.035L96.7377 145.346C94.9045 145.959 92.9221 144.97 92.3054 143.134L59.9865 46.4664C59.081 43.7387 60.5463 40.7906 63.2641 39.872L137.236 15.0314Z" fill="#372168"/>
<path d="M122.465 42.6387C121.949 42.6405 121.507 42.266 121.423 41.7548C121.34 41.2437 121.638 40.7472 122.129 40.5833L133.327 36.8219C133.878 36.6371 134.474 36.9354 134.659 37.488C134.843 38.0406 134.546 38.6384 133.994 38.8231L122.796 42.5785C122.691 42.6189 122.579 42.6393 122.465 42.6387Z" fill="#372168"/>
<path d="M80.9932 56.5871C80.4764 56.5889 80.0348 56.2143 79.9511 55.7032C79.8673 55.192 80.1662 54.6956 80.6564 54.5316L116.457 42.476C116.821 42.3242 117.239 42.3886 117.54 42.6429C117.841 42.8972 117.976 43.2989 117.888 43.6838C117.801 44.0688 117.506 44.3726 117.125 44.4712L81.324 56.4967C81.2204 56.5474 81.1082 56.5781 80.9932 56.5871Z" fill="#372168"/>
<path d="M112.037 57.2803C111.522 57.2791 111.083 56.9036 111.001 56.3934C110.918 55.8831 111.217 55.3884 111.706 55.2248L136.676 46.8401C137.211 46.7018 137.761 47.0014 137.937 47.5261C138.113 48.0509 137.854 48.6225 137.344 48.8353L112.374 57.226C112.265 57.2616 112.152 57.2799 112.037 57.2803Z" fill="#372168"/>
<path d="M84.337 66.5812C83.8214 66.58 83.3825 66.2045 83.3004 65.6943C83.2183 65.184 83.5171 64.6893 84.0062 64.5257L106.33 57.0391C106.881 56.8527 107.479 57.1496 107.665 57.7022C107.851 58.2548 107.555 58.854 107.004 59.0404L84.6798 66.5269C84.5693 66.5637 84.4535 66.582 84.337 66.5812Z" fill="#372168"/>
<path d="M87.6868 76.5994C87.1711 76.5982 86.7323 76.2227 86.6501 75.7125C86.568 75.2022 86.8669 74.7075 87.356 74.5439L140.008 56.8523C140.559 56.6659 141.157 56.9627 141.343 57.5153C141.529 58.068 141.233 58.6671 140.682 58.8535L88.0115 76.5451C87.9066 76.5795 87.7971 76.5978 87.6868 76.5994Z" fill="#372168"/>
<path d="M136.562 71.325C136.045 71.3268 135.604 70.9523 135.52 70.4411C135.436 69.93 135.735 69.4335 136.225 69.2696L143.37 66.8584C143.727 66.7389 144.12 66.8192 144.401 67.069C144.683 67.3188 144.81 67.7003 144.735 68.0696C144.66 68.439 144.394 68.7401 144.037 68.8597L136.899 71.2708C136.79 71.3064 136.677 71.3247 136.562 71.325Z" fill="#372168"/>
<path d="M91.0365 86.6176C90.5842 86.6135 90.1838 86.3234 90.0382 85.8942C89.949 85.6289 89.9693 85.3388 90.0947 85.0886C90.2201 84.8384 90.4401 84.6488 90.7057 84.5621L130.885 71.0538C131.247 70.9076 131.66 70.9741 131.958 71.2267C132.256 71.4793 132.39 71.8765 132.306 72.2585C132.222 72.6406 131.935 72.9448 131.558 73.049L91.3733 86.5512C91.2652 86.591 91.1515 86.6133 91.0365 86.6176Z" fill="#372168"/>
<path d="M94.3863 96.6297C93.8695 96.6315 93.4278 96.257 93.3441 95.7458C93.2603 95.2347 93.5592 94.7382 94.0495 94.5743L143.147 78.0882C143.504 77.9687 143.897 78.049 144.179 78.2988C144.46 78.5486 144.588 78.9301 144.513 79.2994C144.437 79.6688 144.172 79.9699 143.815 80.0895L94.723 96.5755C94.6142 96.6106 94.5006 96.6289 94.3863 96.6297Z" fill="#372168"/>
<path d="M142.702 19.5041C142.485 19.5037 142.285 19.3862 142.179 19.1966C141.608 18.0879 140.407 17.4547 139.172 17.6113C138.957 17.6458 138.74 17.5627 138.603 17.3935C138.466 17.2242 138.429 16.9944 138.507 16.7907C138.585 16.5869 138.765 16.4402 138.98 16.4058C140.709 16.1715 142.402 17.0424 143.22 18.5878C143.299 18.7275 143.32 18.8934 143.277 19.0485C143.234 19.2036 143.131 19.3351 142.991 19.4136C142.903 19.4663 142.804 19.4973 142.702 19.5041Z" fill="#372168"/>
<path d="M168.608 24.7146L230.012 72.937C233.319 75.5344 233.899 80.3272 231.308 83.6421L169.32 162.937C167.718 164.986 164.762 165.346 162.718 163.74L97.6932 112.674C95.6487 111.068 95.29 108.105 96.8919 106.056L159.625 25.8074C160.672 24.4684 162.206 23.6011 163.891 23.3962C165.576 23.1912 167.273 23.6655 168.608 24.7146Z" fill="white"/>
<path fill-rule="evenodd" clip-rule="evenodd" d="M161.977 164.69C163.014 165.507 164.296 165.951 165.615 165.949C167.433 165.955 169.151 165.118 170.27 163.683L232.232 84.3873C233.673 82.5433 234.325 80.2009 234.043 77.8755C233.761 75.5501 232.569 73.4323 230.728 71.9881L169.326 23.7657C166.021 21.1715 161.243 21.7515 158.651 25.0617L95.9439 105.31C93.9373 107.885 94.3863 111.602 96.9482 113.622L161.977 164.69ZM160.57 26.5505C161.556 25.2894 163.066 24.5535 164.665 24.5553C165.822 24.5431 166.948 24.921 167.865 25.6283L229.273 73.8507C230.618 74.9018 231.49 76.4473 231.694 78.1445C231.898 79.8418 231.419 81.5507 230.362 82.8924L168.376 162.188C167.805 162.922 166.966 163.399 166.044 163.512C165.122 163.625 164.193 163.366 163.462 162.791L98.4396 111.723C96.9198 110.528 96.6509 108.326 97.8382 106.799L160.57 26.5505Z" fill="#372168"/>
<path d="M208.29 84.5078C208.055 84.5074 207.827 84.429 207.641 84.2848L198.343 76.9851C198.047 76.7526 197.897 76.3791 197.949 76.0054C198.002 75.6318 198.25 75.3147 198.599 75.1736C198.948 75.0325 199.346 75.0889 199.642 75.3215L208.934 82.6211C209.289 82.8984 209.428 83.3709 209.282 83.797C209.135 84.2232 208.734 84.5088 208.284 84.5078H208.29Z" fill="#372168"/>
<path d="M194.29 73.5131C194.054 73.5115 193.825 73.4309 193.64 73.2841L163.919 49.9565C163.606 49.7302 163.441 49.3497 163.49 48.9654C163.54 48.581 163.795 48.2548 164.156 48.1156C164.517 47.9765 164.925 48.0468 165.218 48.2989L194.939 71.6566C195.294 71.9338 195.434 72.4063 195.287 72.8325C195.14 73.2587 194.74 73.5443 194.29 73.5433V73.5131Z" fill="#372168"/>
<path d="M201.789 92.8202C201.556 92.8198 201.33 92.7413 201.146 92.5971L180.416 76.3221C180.196 76.1507 180.053 75.8985 180.019 75.6213C179.985 75.3441 180.063 75.0648 180.235 74.8453C180.595 74.3882 181.256 74.3075 181.715 74.6644L202.439 90.9395C202.788 91.218 202.925 91.6874 202.779 92.1104C202.632 92.5334 202.236 92.8179 201.789 92.8202Z" fill="#372168"/>
<path d="M176.579 73.0189C176.344 73.0198 176.115 72.9413 175.929 72.7958L157.449 58.2628C157.152 58.0302 157.002 57.6568 157.055 57.2831C157.107 56.9094 157.355 56.5923 157.704 56.4513C158.053 56.3102 158.451 56.3666 158.748 56.5991L177.258 71.1382C177.608 71.4167 177.744 71.8861 177.598 72.3091C177.452 72.7321 177.056 73.0166 176.609 73.0189H176.579Z" fill="#372168"/>
<path d="M195.294 101.139C195.059 101.14 194.83 101.061 194.645 100.915L150.917 66.557C150.603 66.3308 150.439 65.9502 150.488 65.5659C150.537 65.1816 150.793 64.8553 151.154 64.7162C151.515 64.577 151.923 64.6474 152.216 64.8994L195.944 99.2579C196.298 99.5351 196.438 100.008 196.291 100.434C196.145 100.86 195.744 101.146 195.294 101.145V101.139Z" fill="#372168"/>
<path d="M188.793 109.451C188.558 109.452 188.329 109.373 188.144 109.228L182.214 104.574C181.917 104.342 181.767 103.968 181.82 103.595C181.873 103.221 182.12 102.904 182.469 102.763C182.819 102.622 183.216 102.678 183.513 102.911L189.443 107.57C189.792 107.849 189.928 108.318 189.782 108.741C189.636 109.164 189.24 109.449 188.793 109.451Z" fill="#372168"/>
<path d="M178.425 101.313C178.19 101.314 177.961 101.236 177.776 101.09L144.416 74.8935C143.958 74.5339 143.877 73.8701 144.236 73.4106C144.595 72.9512 145.257 72.8703 145.715 73.2298L179.099 99.4266C179.453 99.7039 179.593 100.176 179.446 100.603C179.3 101.029 178.899 101.314 178.449 101.313H178.425Z" fill="#372168"/>
<path d="M179.327 115.443C179.091 115.444 178.861 115.363 178.678 115.213L137.915 83.2058C137.487 82.8382 137.424 82.1975 137.772 81.753C138.12 81.3085 138.756 81.2181 139.214 81.5482L179.977 113.556C180.331 113.833 180.471 114.306 180.324 114.732C180.178 115.158 179.777 115.444 179.327 115.443Z" fill="#372168"/>
<path d="M229.014 81.2106C228.919 81.2087 228.824 81.1861 228.738 81.1443C228.444 80.9895 228.331 80.6252 228.485 80.3306C229.08 79.2426 228.949 77.9005 228.155 76.949C227.929 76.7043 227.943 76.3224 228.188 76.096C228.432 75.8697 228.813 75.8845 229.039 76.1292C230.176 77.4552 230.379 79.3468 229.55 80.8851C229.446 81.0855 229.24 81.2111 229.014 81.2106Z" fill="#372168"/>
<path d="M150.286 8.6721C150.018 8.67029 149.784 8.491 149.711 8.23244C149.638 7.97388 149.745 7.69843 149.973 7.55696L153.052 5.65217C153.333 5.47922 153.701 5.56526 153.876 5.84506C153.961 5.98088 153.988 6.14494 153.952 6.30103C153.916 6.45711 153.82 6.59236 153.684 6.6769L150.605 8.58168C150.509 8.64113 150.398 8.67246 150.286 8.6721Z" fill="#372168"/>
<path d="M146.515 6.55634C146.304 6.55577 146.109 6.44453 146.001 6.26317C145.892 6.08181 145.887 5.85683 145.986 5.67025L147.892 2.05357C147.989 1.85761 148.185 1.72967 148.403 1.71925C148.621 1.70884 148.827 1.81759 148.942 2.00341C149.057 2.18923 149.063 2.42297 148.957 2.61416L147.05 6.23084C146.947 6.4312 146.74 6.55681 146.515 6.55634Z" fill="#372168"/>
<path d="M142.414 5.06143C142.106 5.0633 141.846 4.83173 141.812 4.52495L141.385 0.66716C141.35 0.337973 141.586 0.0419453 141.914 0.0041016C142.073 -0.0145509 142.233 0.0309064 142.358 0.130434C142.483 0.229962 142.564 0.375371 142.582 0.534548L143.003 4.39234C143.038 4.72153 142.802 5.01755 142.474 5.0554L142.414 5.06143Z" fill="#372168"/>
<path fill-rule="evenodd" clip-rule="evenodd" d="M199.474 116.582V190.615C199.474 200.103 191.8 207.794 182.334 207.794H59.8421C50.3761 207.794 42.7024 200.103 42.7024 190.615V97.8775C42.7024 86.0393 52.277 76.4426 64.088 76.4426H113.667C120.174 76.4458 126.327 79.416 130.386 84.5139L137.097 92.9528C138.88 95.1963 141.585 96.5033 144.446 96.5031H179.435C184.75 96.4999 189.848 98.6141 193.606 102.38C197.365 106.146 199.476 111.255 199.474 116.582Z" fill="#21D363"/>
<path fill-rule="evenodd" clip-rule="evenodd" d="M59.8421 209H182.334C192.46 208.99 200.667 200.765 200.677 190.615V116.582C200.66 104.835 191.162 95.3169 179.441 95.3036H144.452C141.955 95.3076 139.593 94.1662 138.041 92.2053L131.33 83.7664C127.057 78.3613 120.547 75.2179 113.667 75.2371H64.088C51.6183 75.2504 41.5129 85.3791 41.4996 97.8775V190.615C41.5095 200.765 49.716 208.99 59.8421 209ZM43.9052 97.8775C43.9151 86.7093 52.9454 77.6582 64.088 77.6482H113.667C119.813 77.6334 125.628 80.4408 129.448 85.2673L136.159 93.7063C138.166 96.2442 141.222 97.7212 144.452 97.7147H179.441C189.834 97.7247 198.258 106.165 198.271 116.582V190.615C198.261 199.433 191.132 206.579 182.334 206.589H59.8421C51.0445 206.579 43.9151 199.433 43.9052 190.615V97.8775Z" fill="#372168"/>
<path d="M189.852 111.44C189.61 111.44 189.392 111.295 189.298 111.072C188.204 108.489 186.045 106.51 183.381 105.647C183.086 105.53 182.933 105.205 183.03 104.903C183.127 104.601 183.44 104.425 183.747 104.502C186.748 105.469 189.178 107.699 190.405 110.608C190.534 110.914 190.392 111.268 190.086 111.398C190.011 111.426 189.932 111.44 189.852 111.44Z" fill="#372168"/>
<path d="M119.903 148.011C119.771 148.012 119.642 147.97 119.537 147.89L113.42 143.182C113.159 142.979 113.11 142.602 113.312 142.339C113.513 142.074 113.89 142.023 114.154 142.224L120.27 146.932C120.532 147.135 120.58 147.512 120.379 147.776C120.265 147.923 120.09 148.01 119.903 148.011Z" fill="#372168"/>
<path d="M126.014 146.835C125.883 146.835 125.757 146.793 125.653 146.715L113.42 137.305C113.159 137.102 113.11 136.725 113.312 136.461C113.513 136.197 113.89 136.146 114.154 136.347L126.38 145.756C126.583 145.914 126.664 146.183 126.581 146.427C126.498 146.67 126.27 146.834 126.014 146.835Z" fill="#372168"/>
<path d="M126.014 140.838C125.883 140.838 125.757 140.795 125.653 140.717L122.285 138.125C122.021 137.924 121.97 137.546 122.171 137.281C122.267 137.152 122.411 137.068 122.571 137.046C122.73 137.025 122.891 137.068 123.019 137.167L126.38 139.759C126.583 139.916 126.664 140.186 126.581 140.429C126.498 140.673 126.27 140.837 126.014 140.838Z" fill="#372168"/>
<path d="M56.8291 200.899C56.7659 200.897 56.7031 200.887 56.6427 200.868C53.6459 199.896 51.2172 197.668 49.9853 194.762C49.8557 194.454 49.9998 194.1 50.307 193.97C50.6142 193.84 50.9683 193.984 51.0978 194.292C52.1941 196.874 54.3526 198.853 57.0156 199.717C57.3477 199.769 57.5752 200.08 57.5237 200.413C57.4723 200.746 57.1613 200.974 56.8291 200.923V200.899Z" fill="#372168"/>
<path d="M158.946 208.397C158.614 208.397 158.345 208.127 158.345 207.794V202.617C158.345 202.284 158.614 202.014 158.946 202.014C159.278 202.014 159.547 202.284 159.547 202.617V207.794C159.547 208.127 159.278 208.397 158.946 208.397Z" fill="#372168"/>
<path d="M164.569 208.397C164.237 208.397 163.968 208.127 163.968 207.794V197.409C163.968 197.076 164.237 196.806 164.569 196.806C164.901 196.806 165.17 197.076 165.17 197.409V207.794C165.17 208.127 164.901 208.397 164.569 208.397Z" fill="#372168"/>
</svg>
